<?xml version="1.0" standalone="no"?><!DOCTYPE svg PUBLIC "-//W3C//DTD SVG 1.1//EN" "http://www.w3.org/Graphics/SVG/1.1/DTD/svg11.dtd"><svg t="1713361832862" class="icon" viewBox="0 0 1024 1024" version="1.1" xmlns="http://www.w3.org/2000/svg" p-id="8519" xmlns:xlink="http://www.w3.org/1999/xlink" width="200" height="200"><path d="M509.44 195.242667a64 64 0 0 1 90.453333 0L916.736 512 599.893333 828.757333a64 64 0 0 1-90.453333-90.453333L735.573333 512 509.44 285.696a64 64 0 0 1 0-90.453333z m-341.333333 0a64 64 0 0 1 90.453333 0L575.402667 512 258.56 828.757333a64 64 0 0 1-90.453333-90.453333L394.24 512 168.106667 285.696a64 64 0 0 1 0-90.453333z" fill="#70f768" p-id="8520"></path></svg>