<svg
  data-v-6b808fc6=""
  data-noselect=""
  viewBox="0 0 800 600"
  width="800"
  height="600"
  preserveAspectRatio="none"
  version="1.1"
  xmlns="http://www.w3.org/2000/svg"
  xmlns:xlink="http://www.w3.org/1999/xlink"
  class="svg-canvas"
>
  <defs data-v-6b808fc6=""></defs>
  <g data-v-6b808fc6="" id="background" data-noselect="">
    <!---->
    <!---->
    <g data-v-6b808fc6="" mask="">
      <g
        data-v-6b808fc6=""
        transform="translate(160,220.40659465567) rotate(0,79.560062659572,79.59340534433) scale(1,1)"
        filter=""
        style="opacity: 1"
      >
        <g data-v-6b808fc6="">
          <rect
            fill="rgba(0,0,0,0)"
            width="179.12012531914"
            height="179.18681068866"
            x="-10"
            y="-10"
          ></rect>
          <svg
            version="1.1"
            id="圖層_1"
            xmlns="http://www.w3.org/2000/svg"
            xmlns:xlink="http://www.w3.org/1999/xlink"
            x="0px"
            y="0px"
            viewBox="0 0 238.3001251220703 238.39999389648438"
            style="enable-background: new 0 0 238.4 238.4"
            xml:space="preserve"
            width="159.12012531914"
            height="159.18681068866"
            class="style-removed"
            preserveAspectRatio="none"
            data-parent="shape_HTDbvxvjZK"
          >
            <g>
              <path
                d="M119.2,0C53.4,0,0,53.4,0,119.2c0,54.5,36.6,100.4,86.5,114.7v-39.8h-8c-21.1,0-38.3-17.2-38.3-38.3V97.1
      c0-21.1,17.2-38.3,38.3-38.3h86.9c21.1,0,38.3,17.2,38.3,38.3v58.7c0,21.1-17.2,38.3-38.3,38.3h-42.3L107.5,234l-1.6,3.7
      c4.4,0.5,8.8,0.7,13.2,0.7c65.8,0,119.2-53.4,119.2-119.2C238.4,53.4,185,0,119.2,0z"
                fill="#40f536"
                stroke-width="0"
              ></path>
              <path
                d="M177.3,125v-21.7c0-6.6-5.4-12-12-12H77.1c-6.6,0-12,5.4-12,12V125c0,6.6,5.4,12,12,12h88.2
      C171.9,137,177.3,131.6,177.3,125z M106.3,126.8c0,3.2-2.6,5.7-5.7,5.7h-5.4c-3.1,0-5.7-2.6-5.7-5.7v-22.7c0-3.1,2.6-5.7,5.7-5.7
      h5.4c3.2,0,5.7,2.6,5.7,5.7V126.8z M155.6,126.8c0,3.2-2.6,5.7-5.7,5.7h-5.4c-3.2,0-5.7-2.6-5.7-5.7v-22.7c0-3.1,2.6-5.7,5.7-5.7
      h5.4c3.1,0,5.7,2.6,5.7,5.7V126.8z"
                fill="#40f536"
                stroke-width="0"
              ></path>
              <path
                d="M150,158.5V158H97.8v0.5c0,0,2,22.4,26.1,22.4C148,180.9,150,158.5,150,158.5z"
                fill="#40f536"
                stroke-width="0"
              ></path>
            </g>
          </svg>
        </g>
      </g>
    </g>
    <g data-v-6b808fc6="" mask="">
      <g
        data-v-6b808fc6=""
        transform="translate(107.37597571278707,14.398548525086994) rotate(0,385.813681868343,278.313681868343) scale(1,1)"
        filter=""
        style="opacity: 1"
      >
        <g data-v-6b808fc6="">
          <svg
            xmlns="http://www.w3.org/2000/svg"
            version="1.1"
            xmlns:xlink="http://www.w3.org/1999/xlink"
            width="771.627363736686"
            height="556.627363736686"
            viewBox="0 0 771.627363736686 556.627363736686"
            data-ligature="true"
            data-parent="shape_8pOeprnqS2"
          >
            <g
              data-role="text"
              data-width="292.92799999999994"
              data-height="79"
              transform="translate(238.813681868343, 238.813681868343)"
            >
              <path
                d="M53.17-57.63L52.30-54.05L71.56-54.05L71.56-47.68L50.71-47.68L49.67-43.22L70.53-43.22L70.53-42.43L70.53-36.85L70.53-16.72Q70.53-9.23 63.84-9.23L63.84-9.23L61.93-9.23L56.36-9.23L58.74-15.20L59.62-15.20Q60.58-15.20 61.25-15.96Q61.93-16.72 61.93-17.75L61.93-17.75L61.93-18.39L49.19-18.39L49.19-9.23L40.60-9.23L40.60-29.77L36.85-29.77L41.31-47.68L37.89-47.68L37.89-54.05L42.82-54.05L43.70-57.63L53.17-57.63ZM49.19-24.36L61.93-24.36L61.93-27.70L49.19-27.70L49.19-24.36ZM61.93-33.75L61.93-36.85L49.19-36.85L49.19-33.75L61.93-33.75ZM33.19-28.02L37.25-28.02L34.79-15.04L40.60-7.48L71.56-7.48L69.33-0.16L36.38-0.16L32.72-4.38L31.92-0.16L24.28-0.16L28.50-20.70L24.76-20.70L24.84-20.86L28.66-38.29L24.76-38.29L24.76-45.53L35.98-45.53L37.01-45.53L33.19-28.02ZM36.85-47.92L27.94-47.92L24.99-57.63L33.91-57.63L36.85-47.92ZM19.82-3.10L11.94-3.10L16.16-25.55L11.70-25.55L15.68-49.59L10.67-49.59L10.67 0.24L1.59 0.24L1.59-57.47L7.24-57.47L10.67-57.47L25.07-57.47L20.78-32.08L25.31-32.08L19.82-3.10Z"
                transform="translate(0 68) "
                fill="#40f536"
                stroke="#40f536"
                stroke-width="0.133"
                data-glyph-w="73.23199999999999"
                data-glyph-h="79.6"
                data-glyph-ascender="68.37639999999999"
                data-glyph-descender="-11.2236"
                data-kerning="0"
              ></path>
              <path
                d="M1.75-25.23L33.19-25.23L33.19-32.00L5.41-32.00L5.41-39.40L33.19-39.40L33.19-47.76L3.58-46.25L3.58-53.65L69.01-56.91L69.01-49.51L43.94-48.32L43.94-39.40L66.78-39.40L66.78-32.00L43.94-32.00L43.94-25.23L71.40-25.23L71.40-17.83L43.94-17.83L43.94-8.12Q43.94-4.94 41.71-2.71Q39.48-0.48 36.30-0.48L36.30-0.48L23.72-0.48L27.22-7.88L31.44-7.88Q32.16-7.88 32.68-8.40Q33.19-8.92 33.19-9.71L33.19-9.71L33.19-17.83L1.75-17.83L1.75-25.23Z"
                transform="translate(73.23199999999999 68) "
                fill="#40f536"
                stroke="#40f536"
                stroke-width="0.133"
                data-glyph-w="73.23199999999999"
                data-glyph-h="79.6"
                data-glyph-ascender="68.37639999999999"
                data-glyph-descender="-11.2236"
                data-kerning="0"
              ></path>
              <path
                d="M56.04-14.49L56.04-14.01Q56.04-12.18 55.36-10.59Q54.69-8.99 53.49-7.80Q52.30-6.61 50.71-5.93Q49.11-5.25 47.36-5.25L47.36-5.25L17.99-5.25L17.99-10.03L17.99-11.54L17.99-14.49L17.99-20.78L17.99-23.72L17.99-30.01L29.13-30.01L45.21-30.01L56.04-30.01L56.04-23.72L56.04-20.78L56.04-14.49ZM29.13-23.72L29.13-20.78L45.21-20.78L45.21-23.72L29.13-23.72ZM29.13-11.54L42.75-11.54Q43.78-11.54 44.50-12.26Q45.21-12.97 45.21-14.09L45.21-14.09L45.21-14.49L29.13-14.49L29.13-11.54ZM54.61-57.39L53.49-55.08L71.48-55.08L71.48-49.67L64.95-49.67L68.46-44.02L57.31-44.02L53.89-49.67L50.78-49.67L48.16-44.26L37.17-44.26L43.62-57.39L54.61-57.39ZM12.66-44.26L1.75-44.26L8.20-57.39L19.18-57.39L17.99-55.08L36.06-55.08L36.06-49.67L29.53-49.67L33.03-44.02L21.89-44.02L18.39-49.67L15.36-49.67L12.66-44.26ZM30.01-33.59L19.10-33.59L15.92-41.95L26.90-41.95L30.01-33.59ZM70.37-40.60L70.37-8.84Q70.37-7.00 69.65-5.37Q68.93-3.74 67.74-2.55Q66.55-1.35 64.91-0.68Q63.28 0 61.45 0L61.45 0L50.86 0L53.97-6.93L56.60-6.93Q57.63-6.93 58.39-7.64Q59.14-8.36 59.14-9.47L59.14-9.47L59.14-33.51L32.48-33.51L32.48-40.60L70.37-40.60ZM14.57-37.73L14.57 0L3.26 0L3.26-37.73L14.57-37.73Z"
                transform="translate(146.46399999999997 68) "
                fill="#40f536"
                stroke="#40f536"
                stroke-width="0.133"
                data-glyph-w="73.23199999999999"
                data-glyph-h="79.6"
                data-glyph-ascender="68.37639999999999"
                data-glyph-descender="-11.2236"
                data-kerning="0"
              ></path>
              <path
                d="M16.56-8.84L12.66-0.24L1.75-0.24L5.57-8.84L5.57-57.31L71.48-57.31L71.48-49.51L16.56-49.51L16.56-8.84ZM47.68-8.20L57.71-8.20Q58.82-8.20 59.54-8.92Q60.26-9.63 60.26-10.75L60.26-10.75L60.26-35.26L39.32-35.26L32.87-0.08L21.97-0.08L28.34-35.26L20.06-35.26L20.06-43.22L29.77-43.22L30.57-47.76L41.55-47.76L40.76-43.22L71.48-43.22L71.48-9.07Q71.48-7.24 70.76-5.65Q70.05-4.06 68.85-2.87Q67.66-1.67 66.03-0.96Q64.40-0.24 62.57-0.24L62.57-0.24L44.10-0.24L47.68-8.20Z"
                transform="translate(219.69599999999997 68) "
                fill="#40f536"
                stroke="#40f536"
                stroke-width="0.133"
                data-glyph-w="73.23199999999999"
                data-glyph-h="79.6"
                data-glyph-ascender="68.37639999999999"
                data-glyph-descender="-11.2236"
                data-kerning="0"
              ></path>
            </g>
          </svg>
        </g>
      </g>
    </g>
    <g data-v-6b808fc6="" mask="">
      <g
        data-v-6b808fc6=""
        transform="translate(230.496359253946,216.51893206624598) rotate(0,187.693298327184,134.693298327184) scale(1,1)"
        filter=""
        style="opacity: 1"
      >
        <g data-v-6b808fc6="">
          <svg
            xmlns="http://www.w3.org/2000/svg"
            version="1.1"
            xmlns:xlink="http://www.w3.org/1999/xlink"
            width="375.3865966543681"
            height="269.386596654368"
            viewBox="0 0 375.3865966543681 269.386596654368"
            data-ligature="true"
            data-parent="shape_lkCdCf9iXY"
          >
            <g
              data-role="text"
              data-width="143.58328125000003"
              data-height="38"
              transform="translate(115.69329832718401, 115.69329832718401)"
            >
              <path
                d="M6.68 0L3.03 0L3.03-27.60L15.27-27.60Q18.96-27.60 20.88-26.86Q22.80-26.11 23.95-24.23Q25.10-22.35 25.10-20.07L25.10-20.07Q25.10-17.13 23.20-15.12Q21.29-13.10 17.32-12.56L17.32-12.56Q18.77-11.86 19.52-11.18L19.52-11.18Q21.13-9.72 22.56-7.51L22.56-7.51L27.36 0L22.76 0L19.11-5.74Q17.51-8.23 16.47-9.55Q15.44-10.86 14.62-11.39Q13.80-11.92 12.95-12.13L12.95-12.13Q12.33-12.26 10.92-12.26L10.92-12.26L6.68-12.26L6.68 0ZM6.68-24.55L6.68-15.42L14.54-15.42Q17.04-15.42 18.45-15.94Q19.86-16.46 20.60-17.59Q21.33-18.73 21.33-20.07L21.33-20.07Q21.33-22.03 19.91-23.29Q18.49-24.55 15.42-24.55L15.42-24.55L6.68-24.55Z"
                transform="translate(0 32) skewX(-1)"
                fill="#40f536"
                stroke="#40f536"
                stroke-width="0.064"
                data-glyph-w="27.846796875000003"
                data-glyph-h="43.07875"
                data-glyph-ascender="34.90734375"
                data-glyph-descender="-8.17140625"
                data-kerning="0"
              ></path>
              <path
                d="M16.23-6.44L16.23-6.44L19.73-6.01Q18.90-2.94 16.66-1.24Q14.42 0.45 10.94 0.45L10.94 0.45Q6.55 0.45 3.98-2.25Q1.41-4.95 1.41-9.83L1.41-9.83Q1.41-14.87 4.01-17.66Q6.61-20.45 10.75-20.45L10.75-20.45Q14.76-20.45 17.30-17.72Q19.84-14.99 19.84-10.04L19.84-10.04Q19.84-9.73 19.83-9.13L19.83-9.13L4.91-9.13Q5.10-5.84 6.78-4.09Q8.45-2.33 10.96-2.33L10.96-2.33Q12.82-2.33 14.14-3.31Q15.46-4.29 16.23-6.44ZM5.10-11.92L5.10-11.92L16.27-11.92Q16.04-14.44 14.99-15.70L14.99-15.70Q13.37-17.66 10.79-17.66L10.79-17.66Q8.45-17.66 6.86-16.10Q5.27-14.54 5.10-11.92Z"
                transform="translate(27.846796875000003 32) skewX(-1)"
                fill="#40f536"
                stroke="#40f536"
                stroke-width="0.064"
                data-glyph-w="21.445234375000002"
                data-glyph-h="43.07875"
                data-glyph-ascender="34.90734375"
                data-glyph-descender="-8.17140625"
                data-kerning="0"
              ></path>
              <path
                d="M1.19-5.97L1.19-5.97L4.54-6.50Q4.82-4.48 6.11-3.41Q7.40-2.33 9.72-2.33L9.72-2.33Q12.05-2.33 13.18-3.29Q14.31-4.24 14.31-5.52L14.31-5.52Q14.31-6.67 13.31-7.32L13.31-7.32Q12.61-7.78 9.85-8.47L9.85-8.47Q6.12-9.41 4.68-10.10Q3.24-10.79 2.49-12.00Q1.75-13.22 1.75-14.69L1.75-14.69Q1.75-16.02 2.36-17.16Q2.97-18.30 4.03-19.05L4.03-19.05Q4.82-19.64 6.19-20.04Q7.55-20.45 9.11-20.45L9.11-20.45Q11.47-20.45 13.25-19.77Q15.02-19.09 15.87-17.93Q16.72-16.78 17.04-14.84L17.04-14.84L13.73-14.38Q13.50-15.93 12.42-16.79Q11.33-17.66 9.36-17.66L9.36-17.66Q7.02-17.66 6.03-16.89Q5.03-16.12 5.03-15.08L5.03-15.08Q5.03-14.42 5.44-13.90L5.44-13.90Q5.86-13.35 6.74-12.99L6.74-12.99Q7.25-12.80 9.73-12.13L9.73-12.13Q13.33-11.17 14.75-10.55Q16.17-9.94 16.98-8.77Q17.79-7.61 17.79-5.87L17.79-5.87Q17.79-4.18 16.80-2.68Q15.82-1.19 13.95-0.37Q12.09 0.45 9.73 0.45L9.73 0.45Q5.84 0.45 3.79-1.17Q1.75-2.79 1.19-5.97Z"
                transform="translate(49.29203125000001 32) skewX(-1)"
                fill="#40f536"
                stroke="#40f536"
                stroke-width="0.064"
                data-glyph-w="19.28"
                data-glyph-h="43.07875"
                data-glyph-ascender="34.90734375"
                data-glyph-descender="-8.17140625"
                data-kerning="0"
              ></path>
              <path
                d="M18.68 0L15.65 0L15.65-2.94Q13.31 0.45 9.30 0.45L9.30 0.45Q7.53 0.45 6.00-0.23Q4.46-0.90 3.72-1.93Q2.97-2.96 2.67-4.44L2.67-4.44Q2.47-5.44 2.47-7.61L2.47-7.61L2.47-20.00L5.86-20.00L5.86-8.91Q5.86-6.25 6.06-5.33L6.06-5.33Q6.38-3.99 7.42-3.23Q8.45-2.47 9.98-2.47L9.98-2.47Q11.50-2.47 12.84-3.25Q14.18-4.03 14.73-5.38Q15.29-6.72 15.29-9.28L15.29-9.28L15.29-20.00L18.68-20.00L18.68 0Z"
                transform="translate(68.57203125000001 32) skewX(-1)"
                fill="#40f536"
                stroke="#40f536"
                stroke-width="0.064"
                data-glyph-w="21.445234375000002"
                data-glyph-h="43.07875"
                data-glyph-ascender="34.90734375"
                data-glyph-descender="-8.17140625"
                data-kerning="0"
              ></path>
              <path
                d="M5.93 0L2.54 0L2.54-20.00L5.57-20.00L5.57-17.19Q6.51-18.66 8.08-19.55Q9.64-20.45 11.64-20.45L11.64-20.45Q13.86-20.45 15.28-19.52Q16.70-18.60 17.28-16.95L17.28-16.95Q19.66-20.45 23.46-20.45L23.46-20.45Q26.43-20.45 28.04-18.80Q29.64-17.15 29.64-13.73L29.64-13.73L29.64 0L26.27 0L26.27-12.60Q26.27-14.63 25.94-15.52Q25.61-16.42 24.74-16.96Q23.87-17.51 22.71-17.51L22.71-17.51Q20.60-17.51 19.20-16.11Q17.81-14.70 17.81-11.62L17.81-11.62L17.81 0L14.42 0L14.42-12.99Q14.42-15.25 13.59-16.38Q12.77-17.51 10.88-17.51L10.88-17.51Q9.45-17.51 8.24-16.76Q7.02-16.00 6.48-14.55Q5.93-13.10 5.93-10.37L5.93-10.37L5.93 0Z"
                transform="translate(90.01726562500001 32) skewX(-1)"
                fill="#40f536"
                stroke="#40f536"
                stroke-width="0.064"
                data-glyph-w="32.12078125"
                data-glyph-h="43.07875"
                data-glyph-ascender="34.90734375"
                data-glyph-descender="-8.17140625"
                data-kerning="0"
              ></path>
              <path
                d="M16.23-6.44L16.23-6.44L19.73-6.01Q18.90-2.94 16.66-1.24Q14.42 0.45 10.94 0.45L10.94 0.45Q6.55 0.45 3.98-2.25Q1.41-4.95 1.41-9.83L1.41-9.83Q1.41-14.87 4.01-17.66Q6.61-20.45 10.75-20.45L10.75-20.45Q14.76-20.45 17.30-17.72Q19.84-14.99 19.84-10.04L19.84-10.04Q19.84-9.73 19.83-9.13L19.83-9.13L4.91-9.13Q5.10-5.84 6.78-4.09Q8.45-2.33 10.96-2.33L10.96-2.33Q12.82-2.33 14.14-3.31Q15.46-4.29 16.23-6.44ZM5.10-11.92L5.10-11.92L16.27-11.92Q16.04-14.44 14.99-15.70L14.99-15.70Q13.37-17.66 10.79-17.66L10.79-17.66Q8.45-17.66 6.86-16.10Q5.27-14.54 5.10-11.92Z"
                transform="translate(122.13804687500001 32) skewX(-1)"
                fill="#40f536"
                stroke="#40f536"
                stroke-width="0.064"
                data-glyph-w="21.445234375000002"
                data-glyph-h="43.07875"
                data-glyph-ascender="34.90734375"
                data-glyph-descender="-8.17140625"
                data-kerning="0"
              ></path>
            </g>
          </svg>
        </g>
      </g>
    </g>
  </g>
</svg>
